#N canvas 954 136 977 893 12;
#X floatatom 98 104 3 0 0 0 - - - 0;
#X obj 38 52 notein;
#X obj 38 78 stripnote;
#X floatatom 38 103 3 0 0 0 - - - 0;
#X text 38 28 MIDI IN;
#X obj 38 129 bng 20 250 50 0 empty empty empty 17 7 0 10 #fcfcfc #000000
#000000;
#X obj 195 467 soundfiler;
#X text 257 342 load table;
#X obj 212 323 loadbang;
#N canvas 0 0 450 300 (subpatch) 0;
#X array sample1 65664 float 0;
#X coords 0 1 65663 -1 250 200 1 0 0;
#X restore 687 41 graph;
#X obj 111 779 output~;
#X obj 44 457 bng 15 250 50 0 empty empty empty 17 7 0 10 #fcfcfc #000000
#000000;
#N canvas 0 0 450 300 (subpatch) 0;
#X array sample2 236160 float 0;
#X coords 0 1 236159 -1 250 200 1 0 0;
#X restore 687 278 graph;
#X obj 277 558 tabplay~ sample2;
#X obj 295 520 bng 15 250 50 0 empty empty empty 17 7 0 10 #fcfcfc
#000000 #000000;
#X msg 289 430 read -resize /home/kaos/samples/spacesamples/Soyuz3commandoff.wav
sample2;
#X msg 177 388 read -resize /home/kaos/samples/spacesamples/expl1sh.wav
sample1;
#X msg 264 356 87;
#X obj 117 542 tabplay~ sample1;
#X obj 495 682 phasor~;
#X obj 512 490 bng 15 250 50 0 empty empty empty 17 7 0 10 #fcfcfc
#000000 #000000;
#X obj 519 533 random 5;
#X obj 520 561 select 1 2 3 4 5;
#X msg 490 620 220;
#X obj 742 684 phasor~;
#X msg 527 620 226;
#X msg 566 620 240;
#X msg 634 618 250;
#X msg 602 619 245;
#X msg 829 620 240;
#X msg 897 618 250;
#X msg 865 619 245;
#X msg 726 622 220;
#X msg 762 621 215;
#X msg 794 620 230;
#X obj 495 727 *~ 1;
#X obj 424 624 pipe 80;
#X msg 440 675 0.8;
#X msg 389 681 0;
#X obj 207 243 select 41 42 43;
#X connect 1 0 2 0;
#X connect 1 1 2 1;
#X connect 2 0 3 0;
#X connect 2 0 39 0;
#X connect 2 1 0 0;
#X connect 3 0 5 0;
#X connect 8 0 16 0;
#X connect 8 0 15 0;
#X connect 8 0 17 0;
#X connect 11 0 18 0;
#X connect 13 0 10 0;
#X connect 13 0 10 1;
#X connect 14 0 13 0;
#X connect 15 0 6 0;
#X connect 16 0 6 0;
#X connect 18 0 10 0;
#X connect 18 0 10 1;
#X connect 19 0 35 0;
#X connect 20 0 21 0;
#X connect 20 0 36 0;
#X connect 20 0 37 0;
#X connect 21 0 22 0;
#X connect 22 0 23 0;
#X connect 22 0 30 0;
#X connect 22 1 25 0;
#X connect 22 1 33 0;
#X connect 22 2 26 0;
#X connect 22 2 32 0;
#X connect 22 3 28 0;
#X connect 22 3 34 0;
#X connect 22 4 27 0;
#X connect 22 4 29 0;
#X connect 23 0 19 0;
#X connect 24 0 35 0;
#X connect 25 0 19 0;
#X connect 26 0 19 0;
#X connect 27 0 19 0;
#X connect 28 0 19 0;
#X connect 29 0 24 0;
#X connect 30 0 24 0;
#X connect 31 0 24 0;
#X connect 32 0 24 0;
#X connect 33 0 24 0;
#X connect 34 0 24 0;
#X connect 35 0 10 0;
#X connect 35 0 10 1;
#X connect 36 0 38 0;
#X connect 37 0 35 1;
#X connect 38 0 35 1;
#X connect 39 0 18 0;
#X connect 39 1 13 0;
#X connect 39 2 20 0;
